<svg width="118" height="21" xmlns="http://www.w3.org/2000/svg"><g fill-rule="nonzero" fill="none"><path d="M114 5.4142v10.6716c0 .5523-.4477 1-1 1s-1-.4477-1-1v-13c0-.0144.0003-.0288.001-.043a.9974.9974 0 0 1 .2919-.75c.3905-.3904 1.0237-.3904 1.4142 0l3.0858 3.0859c.3905.3905.3905 1.0237 0 1.4142-.3905.3905-1.0237.3905-1.4142 0L114 5.4142zM99 2.0858h10c.5523 0 1 .4477 1 1s-.4477 1-1 1H99c-.5523 0-1-.4477-1-1s.4477-1 1-1zm0 6h10c.5523 0 1 .4477 1 1s-.4477 1-1 1H99c-.5523 0-1-.4477-1-1s.4477-1 1-1zm0 7h10c.5523 0 1 .4477 1 1s-.4477 1-1 1H99c-.5523 0-1-.4477-1-1s.4477-1 1-1z" fill="#FFF"/><path d="M65.336 19.359h19.328c.1856 0 .336.154.336.3441v.9527c0 .19-.1504.3442-.336.3442H65.336c-.1856 0-.336-.1541-.336-.3442v-.9527c0-.19.1504-.3442.336-.3442zM79.5291 3.0614L69.1667 13.6798v2.4152h2.357L81.8862 5.4767l-2.357-2.4152zm.5892-1.8114l3.5356 3.6228c.3254.3335.3254.8741 0 1.2076L72.458 17.5527a.8233.8233 0 0 1-.5892.2501h-3.5356c-.4602 0-.8333-.3823-.8333-.8539v-3.6228a.8647.8647 0 0 1 .244-.6038L78.94 1.2501a.8192.8192 0 0 1 1.1784 0zM35 4h16c.5523 0 1 .4477 1 1s-.4477 1-1 1H35c-.5523 0-1-.4477-1-1s.4477-1 1-1zm8 5.3431l-6.364 6.364c-.3905.3905-1.0237.3905-1.4142 0-.3905-.3905-.3905-1.0237 0-1.4142l7.071-7.071c.3906-.3906 1.0238-.3906 1.4143 0l7.071 7.071c.3906.3905.3906 1.0237 0 1.4142-.3904.3905-1.0236.3905-1.4141 0L43 9.3431zM1.9666 9c-.5523 0-.9024-.3353-.9632-.9063-.0165-.1543.0312-.3636.0608-.5252C2.1503 3.2207 6.0823 0 10.7666 0c4.303 0 7.9712 2.7178 9.3817 6.5305l1.2054-.2964a.5.5 0 0 1 .5826.6738L20.6802 9.998a.5.5 0 0 1-.7419.2269L16.906 8.1895a.5.5 0 0 1 .1592-.9007l1.1249-.2766C17.0062 4.0739 14.1286 2 10.7666 2c-3.7277 0-6.86 2.5495-7.748 6-.0963.562-.4997 1-1.052 1zm18.04 2.31c.5522 0 .9023.3352.9631.9062.0165.1544-.0312.3636-.0608.5253-1.0861 4.3477-5.0181 7.5684-9.7024 7.5684-4.303 0-7.9712-2.7178-9.3817-6.5305l-1.2054.2965a.5.5 0 0 1-.5826-.6738l1.2561-3.0902a.5.5 0 0 1 .7419-.227l3.0324 2.0355a.5.5 0 0 1-.1592.9007l-1.1249.2767c1.1838 2.9382 4.0614 5.0121 7.4234 5.0121 3.7277 0 6.86-2.5495 7.748-6 .0963-.562.4997-1 1.052-1z" fill="#537BFF"/></g></svg>